<svg width="117" height="25.000000000000004" xmlns="http://www.w3.org/2000/svg" fill="none">

 <g>
  <title>Layer 1</title>
  <path id="svg_1" fill="#4B555A" d="m52.624,1.376c0.672,0 1.216,0.056 1.632,0.168c0.432,0.096 0.712,0.184 0.84,0.264l-0.312,1.344c-0.176,-0.08 -0.44,-0.16 -0.792,-0.24c-0.336,-0.096 -0.768,-0.144 -1.296,-0.144c-1.104,0 -1.896,0.28 -2.376,0.84c-0.464,0.56 -0.696,1.456 -0.696,2.688l0,1.296l4.992,0l0,1.32l-4.992,0l0,11.088l-1.56,0l0,-13.752c0,-1.616 0.368,-2.832 1.104,-3.648c0.752,-0.816 1.904,-1.224 3.456,-1.224zm7.608,18.84c-0.528,-0.016 -0.992,-0.088 -1.392,-0.216c-0.384,-0.112 -0.712,-0.288 -0.984,-0.528c-0.256,-0.256 -0.456,-0.576 -0.6,-0.96c-0.128,-0.4 -0.192,-0.896 -0.192,-1.488l0,-15.36l1.56,-0.288l0,15.6c0,0.384 0.032,0.696 0.096,0.936c0.08,0.224 0.192,0.408 0.336,0.552c0.144,0.128 0.328,0.224 0.552,0.288c0.24,0.064 0.52,0.12 0.84,0.168l-0.216,1.296zm2.2286,-6.432c0,-1.088 0.152,-2.032 0.456,-2.832c0.32,-0.816 0.728,-1.496 1.224,-2.04c0.512,-0.544 1.088,-0.944 1.728,-1.2c0.656,-0.272 1.328,-0.408 2.016,-0.408c1.52,0 2.728,0.496 3.624,1.488c0.912,0.992 1.368,2.52 1.368,4.584c0,0.128 -0.008,0.256 -0.024,0.384c0,0.128 -0.008,0.248 -0.024,0.36l-8.712,0c0.048,1.52 0.424,2.688 1.128,3.504c0.704,0.816 1.824,1.224 3.36,1.224c0.848,0 1.52,-0.08 2.016,-0.24c0.496,-0.16 0.856,-0.296 1.08,-0.408l0.288,1.344c-0.224,0.128 -0.648,0.28 -1.272,0.456c-0.608,0.176 -1.328,0.264 -2.16,0.264c-1.088,0 -2.016,-0.16 -2.784,-0.48c-0.768,-0.32 -1.4,-0.768 -1.896,-1.344c-0.496,-0.576 -0.856,-1.256 -1.08,-2.04c-0.224,-0.8 -0.336,-1.672 -0.336,-2.616zm8.808,-0.984c-0.032,-1.296 -0.336,-2.304 -0.912,-3.024c-0.576,-0.72 -1.392,-1.08 -2.448,-1.08c-0.56,0 -1.064,0.112 -1.512,0.336c-0.432,0.224 -0.816,0.528 -1.152,0.912c-0.32,0.368 -0.576,0.8 -0.768,1.296c-0.176,0.496 -0.28,1.016 -0.312,1.56l7.104,0zm8.9725,1.584c-0.352,0.464 -0.704,0.952 -1.056,1.464c-0.352,0.512 -0.696,1.016 -1.032,1.512c-0.32,0.496 -0.616,0.976 -0.888,1.44c-0.272,0.448 -0.504,0.848 -0.696,1.2l-1.608,0c0.656,-1.232 1.344,-2.376 2.064,-3.432c0.72,-1.072 1.456,-2.12 2.208,-3.144l-4.032,-5.832l1.824,0l3.216,4.752l3.264,-4.752l1.704,0l-3.96,5.736c0.336,0.448 0.696,0.936 1.08,1.464c0.384,0.528 0.768,1.08 1.152,1.656c0.384,0.56 0.752,1.144 1.104,1.752c0.368,0.608 0.704,1.208 1.008,1.8l-1.68,0c-0.192,-0.352 -0.424,-0.752 -0.696,-1.2c-0.272,-0.464 -0.576,-0.944 -0.912,-1.44c-0.32,-0.496 -0.664,-1 -1.032,-1.512c-0.352,-0.512 -0.696,-1 -1.032,-1.464z"/>
  <path id="svg_2" fill="#8CAF23" d="m90.73522,20l-1.56,0l0,-12.408l1.56,0l0,12.408zm0.36,-16.152c0,0.368 -0.112,0.664 -0.336,0.888c-0.224,0.208 -0.496,0.312 -0.816,0.312c-0.32,0 -0.592,-0.104 -0.816,-0.312c-0.224,-0.224 -0.336,-0.52 -0.336,-0.888c0,-0.368 0.112,-0.656 0.336,-0.864c0.224,-0.224 0.496,-0.336 0.816,-0.336c0.32,0 0.592,0.112 0.816,0.336c0.224,0.208 0.336,0.496 0.336,0.864zm5.3354,13.92c0.144,0.112 0.32,0.232 0.528,0.36c0.224,0.128 0.48,0.248 0.768,0.36c0.288,0.112 0.6,0.208 0.936,0.288c0.336,0.064 0.688,0.096 1.056,0.096c0.768,0 1.408,-0.128 1.92,-0.384c0.528,-0.272 0.952,-0.632 1.272,-1.08c0.32,-0.464 0.552,-1 0.696,-1.608c0.144,-0.624 0.216,-1.28 0.216,-1.968c0,-1.632 -0.408,-2.88 -1.224,-3.744c-0.816,-0.88 -1.896,-1.32 -3.24,-1.32c-0.768,0 -1.392,0.04 -1.872,0.12c-0.464,0.064 -0.816,0.136 -1.056,0.216l0,8.664zm0,6.672l-1.5601,0l0,-16.416c0.464,-0.16 1.0561,-0.312 1.7761,-0.456c0.72,-0.144 1.632,-0.216 2.736,-0.216c0.912,0 1.736,0.152 2.472,0.456c0.752,0.288 1.392,0.712 1.92,1.272c0.544,0.56 0.96,1.24 1.248,2.04c0.304,0.8 0.456,1.704 0.456,2.712c0,0.944 -0.128,1.816 -0.384,2.616c-0.24,0.784 -0.6,1.464 -1.08,2.04c-0.48,0.56 -1.072,1 -1.776,1.32c-0.688,0.32 -1.48,0.48 -2.376,0.48c-0.816,0 -1.528,-0.112 -2.136,-0.336c-0.592,-0.24 -1.024,-0.464 -1.296,-0.672l0,5.16z"/>
  <path id="svg_3" fill="#4B555A" d="m20.7778,15.2778c-1.5278,0 -2.9945,-0.2445 -4.3634,-0.6967c-0.4277,-0.1344 -0.9044,-0.0367 -1.2466,0.2933l-2.6889,2.6889c-3.4589,-1.76 -6.29446,-4.5833 -8.05446,-8.05441l2.68889,-2.70111c0.34222,-0.31778 0.44,-0.79445 0.30556,-1.22222c-0.45222,-1.36889 -0.69667,-2.83556 -0.69667,-4.36334c0,-0.67222 -0.55,-1.22222 -1.22222,-1.22222l-4.27778,0c-0.67222,0 -1.22222,0.55 -1.22222,1.22222c0,11.47668 9.30111,20.77778 20.7778,20.77778c0.6722,0 1.2222,-0.55 1.2222,-1.2222l0,-4.2778c0,-0.6722 -0.55,-1.2222 -1.2222,-1.2222z"/>
  <path id="svg_4" fill="#8CAF23" d="m19.5556,11l2.4444,0c0,-6.07444 -4.9256,-11 -11,-11l0,2.44444c4.73,0 8.5556,3.82556 8.5556,8.55556zm-4.8889,0l2.4444,0c0,-3.37333 -2.7378,-6.11111 -6.1111,-6.11111l0,2.44444c2.0289,0 3.6667,1.63778 3.6667,3.66667z"/>
 </g>
</svg>