<?xml version="1.0" standalone="no"?>
<!DOCTYPE svg PUBLIC "-//W3C//DTD SVG 20010904//EN"
 "http://www.w3.org/TR/2001/REC-SVG-20010904/DTD/svg10.dtd">
<svg version="1.0" xmlns="http://www.w3.org/2000/svg"
 width="700.000000pt" height="700.000000pt" viewBox="0 0 700.000000 700.000000"
 preserveAspectRatio="xMidYMid meet">
<metadata>
Created by potrace 1.14, written by Peter Selinger 2001-2017
</metadata>
<g transform="translate(0.000000,700.000000) scale(0.100000,-0.100000)"
fill="#000000" stroke="none">
<path d="M289 6987 c-92 -26 -184 -96 -232 -178 -53 -90 -57 -123 -52 -369 3
-124 7 -243 9 -265 2 -22 7 -85 11 -140 4 -55 9 -108 11 -118 2 -10 6 -46 9
-80 3 -34 8 -73 10 -87 3 -14 7 -43 10 -65 10 -77 14 -104 25 -167 11 -66 58
-308 66 -343 3 -11 7 -31 10 -45 3 -14 9 -38 14 -55 5 -16 11 -41 14 -55 33
-167 178 -624 266 -835 115 -278 157 -370 257 -570 188 -372 443 -769 712
-1108 106 -134 110 -138 235 -281 96 -110 441 -455 550 -552 44 -38 84 -74 90
-79 6 -6 70 -58 141 -116 692 -562 1492 -980 2347 -1224 89 -26 169 -48 177
-50 9 -2 63 -15 121 -28 113 -27 283 -63 340 -72 19 -3 46 -7 60 -10 14 -3 41
-7 60 -10 19 -3 46 -7 60 -10 14 -2 48 -7 75 -10 28 -3 61 -8 75 -10 14 -2 50
-6 81 -10 31 -3 65 -7 75 -9 11 -2 64 -7 119 -11 55 -4 118 -9 140 -11 143
-12 473 -14 519 -3 119 28 212 103 268 216 l33 68 0 770 c0 857 4 807 -69 909
-80 113 -191 162 -371 166 -162 3 -385 16 -430 25 -11 2 -47 7 -80 10 -193 20
-509 89 -745 162 -172 54 -277 52 -390 -8 -30 -15 -194 -172 -488 -466 -244
-244 -448 -443 -454 -443 -35 0 -440 235 -633 368 -180 123 -424 311 -553 425
-222 197 -440 417 -614 622 -82 96 -105 124 -123 149 -11 16 -25 33 -31 40 -5
6 -37 47 -70 91 -32 44 -63 84 -67 90 -52 64 -287 428 -287 445 0 5 -4 10 -10
10 -5 0 -10 4 -10 8 0 4 -36 73 -80 152 -44 79 -80 147 -80 150 0 3 199 206
443 451 243 245 451 459 463 475 71 99 77 226 22 404 -42 134 -65 215 -73 250
-2 14 -18 90 -35 170 -26 127 -62 364 -75 500 -2 25 -7 126 -10 225 -4 99 -11
205 -16 235 -20 121 -100 225 -217 282 l-67 33 -755 2 c-578 2 -766 -1 -801
-10z"/>
<path d="M3500 6611 l0 -391 73 -1 c179 -1 383 -28 588 -78 47 -11 105 -28
129 -36 24 -8 52 -17 64 -19 68 -13 391 -158 516 -231 345 -203 656 -494 884
-827 36 -54 66 -101 66 -105 0 -3 7 -14 15 -23 25 -28 159 -299 197 -400 108
-282 158 -501 183 -795 1 -22 3 -77 4 -122 l1 -83 391 0 391 0 -7 162 c-3 89
-8 165 -10 168 -1 3 -6 41 -10 85 -3 43 -8 82 -10 85 -2 3 -6 30 -10 60 -9 75
-69 337 -99 435 -173 571 -469 1067 -884 1481 -324 324 -731 595 -1152 767
-226 92 -558 185 -760 212 -19 3 -46 7 -60 10 -13 2 -52 7 -86 11 -33 3 -74 7
-90 9 -16 2 -95 7 -176 10 l-148 6 0 -390z"/>
<path d="M3502 5056 l3 -390 49 -2 c170 -7 307 -42 471 -125 263 -131 466
-358 568 -634 46 -126 65 -220 72 -355 l2 -45 383 -3 c267 -1 386 1 390 9 7
10 6 27 -5 164 -53 651 -466 1261 -1055 1560 -145 73 -395 157 -540 180 -25 4
-53 9 -62 10 -19 4 -184 17 -241 19 l-37 2 2 -390z"/>
</g>
</svg>
